<?xml version="1.0" standalone="no"?>
<!DOCTYPE svg PUBLIC "-//W3C//DTD SVG 20010904//EN"
 "https://www.w3.org/TR/2001/REC-SVG-20010904/DTD/svg10.dtd">
<svg version="1.0" xmlns="https://www.w3.org/2000/svg"
 width="600.000000pt" height="441.000000pt" viewBox="0 0 600.000000 441.000000"
 preserveAspectRatio="xMidYMid meet">

<g transform="translate(0.000000,441.000000) scale(0.100000,-0.100000)"
fill="#FFF" stroke="none">
<path d="M1650 4405 c0 -3 11 -23 24 -44 125 -197 313 -687 456 -1186 63 -218
171 -638 166 -643 -2 -2 -27 27 -55 65 -89 121 -81 112 -72 77 16 -58 63 -134
123 -199 22 -24 32 -54 53 -150 l26 -120 48 -43 c48 -41 49 -43 56 -115 3 -39
13 -125 21 -190 8 -65 12 -122 9 -127 -3 -6 -14 -10 -23 -10 -9 0 -48 -14 -87
-30 -38 -17 -70 -30 -70 -30 0 0 -1 48 -2 108 -7 541 -414 1446 -848 1888
-285 290 -513 309 -580 49 -20 -78 -19 -257 1 -393 39 -262 162 -627 315 -935
l41 -82 -53 60 c-351 394 -721 759 -962 952 -111 90 -225 168 -232 161 -3 -3
23 -29 57 -59 449 -387 1206 -1175 1388 -1445 211 -313 453 -542 605 -574 29
-6 30 -8 33 -70 8 -189 146 -356 397 -482 215 -108 449 -153 750 -145 169 4
186 6 273 36 51 17 112 42 135 55 l42 24 35 -60 c63 -110 200 -232 335 -300
78 -40 206 -76 307 -89 170 -20 354 12 511 89 64 32 98 44 104 37 19 -21 25
-113 8 -144 -17 -34 -20 -56 -3 -26 11 19 11 19 19 0 15 -38 9 -65 -23 -102
-32 -36 -32 -37 -6 -20 35 22 36 22 41 -10 4 -25 4 -24 6 6 l1 35 32 -30 32
-29 -27 33 c-15 19 -29 43 -32 55 -6 32 -12 97 -8 97 2 0 16 -8 31 -17 27 -18
27 -17 -4 18 -41 48 -61 160 -22 121 7 -7 17 -12 23 -12 5 0 -3 11 -20 25
l-30 24 73 67 c74 68 142 155 181 232 19 38 24 42 38 30 15 -12 15 -11 4 10
-7 13 -11 25 -9 27 2 2 28 -9 58 -23 39 -19 60 -37 73 -62 17 -31 18 -32 13
-8 -4 16 -2 28 2 28 24 0 78 -49 89 -80 12 -34 12 -34 12 -7 l1 28 45 -32 c25
-18 45 -33 45 -33 0 -1 7 -19 15 -41 10 -28 14 -33 15 -17 0 12 4 22 9 22 19
0 61 -63 62 -93 l1 -32 7 30 c5 27 11 31 51 35 l45 5 -53 8 c-40 6 -62 16 -90
42 l-37 33 35 10 35 10 -46 1 c-34 1 -56 9 -89 33 -42 32 -43 33 -19 39 20 6
18 7 -12 8 -20 1 -57 13 -83 27 l-46 26 22 19 c23 20 23 20 1 10 -32 -16 -55
-14 -110 10 l-48 20 25 19 c23 17 23 19 4 14 -21 -6 -21 -5 -7 48 19 72 12
272 -13 348 l-18 55 -8 -70 c-17 -140 -102 -231 -217 -229 -103 1 -205 67
-263 171 -17 29 -31 53 -31 53 -1 0 -2 -44 -2 -97 0 -85 -4 -106 -26 -153 -57
-122 -143 -180 -263 -180 -128 0 -236 75 -299 208 -30 62 -32 74 -32 172 1
123 18 171 86 245 136 148 374 107 481 -81 16 -30 31 -54 31 -54 1 0 2 44 2
98 0 85 3 104 26 147 15 30 42 62 68 80 37 26 52 30 107 30 35 0 64 3 64 6 0
10 -124 79 -183 102 l-59 22 6 37 c3 20 21 83 40 140 222 676 773 1549 1126
1787 l65 44 -39 -7 c-204 -37 -485 -270 -798 -662 -307 -384 -598 -875 -695
-1174 l-38 -117 -73 -7 c-95 -9 -212 -40 -289 -76 -35 -16 -63 -28 -63 -27 0
2 18 47 40 101 22 54 40 106 40 117 0 10 -35 65 -78 121 -43 57 -104 146 -136
198 -32 52 -71 109 -87 125 l-28 30 21 60 c15 41 21 86 22 145 1 73 -3 91 -23
127 -29 51 -37 51 -16 0 26 -62 20 -162 -14 -232 -15 -33 -38 -69 -50 -79 -11
-11 -21 -24 -21 -30 0 -16 76 -127 203 -299 l110 -148 -32 -42 c-80 -108 -251
-418 -251 -456 0 -17 -11 -13 -73 28 -33 22 -96 56 -142 78 l-84 38 -3 135 -3
135 -58 83 c-32 46 -78 125 -103 175 -26 51 -57 107 -70 124 -24 32 -25 34 -9
85 33 112 11 330 -40 393 -17 20 -17 20 -10 0 52 -162 44 -337 -21 -414 l-25
-30 37 -73 c43 -86 142 -253 191 -321 l33 -48 -26 -87 c-14 -48 -28 -93 -30
-101 -3 -8 -12 -11 -27 -7 -12 3 -62 13 -112 22 -49 9 -97 19 -105 24 -12 5
-16 37 -22 146 -7 147 -36 489 -44 514 -2 8 -35 39 -73 68 -135 105 -215 194
-285 317 -48 84 -55 87 -32 13 27 -91 172 -282 274 -362 45 -35 49 -42 41 -63
-20 -54 -6 -265 35 -495 7 -43 10 -78 7 -78 -3 0 -75 69 -159 153 l-152 152 0
80 c0 52 -5 87 -14 100 -7 11 -57 47 -109 79 l-96 59 -16 76 c-153 702 -444
1491 -676 1833 -36 53 -49 67 -49 53z m-440 -586 c65 -33 126 -79 107 -79 -10
0 -33 11 -51 25 -18 14 -57 39 -87 56 -56 31 -30 30 31 -2z m263 -211 c97
-101 107 -113 86 -117 -19 -2 -36 11 -84 65 -33 38 -80 90 -106 117 -39 40
-43 47 -25 47 13 0 59 -40 129 -112z m-393 -143 c24 -64 23 -69 -23 -103 -24
-17 -47 -28 -51 -25 -22 22 6 134 36 146 23 10 28 7 38 -18z m599 -102 c85
-115 177 -260 169 -268 -3 -3 -18 -3 -34 1 -22 4 -36 18 -58 57 -23 43 -136
214 -195 298 -12 17 -11 19 12 19 21 0 40 -19 106 -107z m-443 -300 c22 -48
31 -79 25 -81 -6 -2 -35 -22 -64 -43 l-52 -40 -12 28 c-15 34 -16 103 -3 138
9 22 55 75 67 75 2 0 20 -35 39 -77z m661 -45 c50 -99 79 -168 101 -241 l20
-68 -30 3 c-28 3 -32 9 -68 103 -20 55 -56 137 -79 183 l-41 82 33 0 c30 0 35
-5 64 -62z m-462 -377 c16 -33 27 -62 24 -64 -2 -2 -34 -26 -71 -55 -37 -29
-69 -52 -72 -52 -2 0 -9 22 -16 49 -19 80 7 143 75 179 11 6 22 9 25 7 3 -2
19 -31 35 -64z m589 36 c27 -109 14 -259 -31 -359 -31 -70 -46 -76 -27 -10 29
94 28 248 -3 370 -4 19 -1 22 25 22 23 0 31 -5 36 -23z m472 -422 c-13 -30
-14 -30 -48 -1 -15 14 -30 40 -34 61 l-7 37 51 -36 c47 -34 49 -38 38 -61z
m-833 -55 l28 -50 -37 -32 c-21 -18 -43 -39 -50 -45 -7 -7 -17 -13 -23 -13
-15 0 -35 74 -27 103 7 30 53 87 69 87 7 0 25 -22 40 -50z m1039 -333 l82 -91
-32 -7 c-17 -3 -64 -10 -103 -13 l-71 -7 6 38 c3 21 8 71 12 110 3 40 10 70
15 67 5 -2 46 -46 91 -97z m-807 -68 c21 -33 36 -61 34 -62 -2 -1 -14 -10 -25
-20 -55 -46 -122 59 -78 121 8 12 19 22 24 22 5 0 25 -27 45 -61z m361 -253
c314 -106 789 -296 742 -296 -16 0 -326 111 -521 187 -325 126 -444 185 -221
109z m1240 -153 c-5 -6 -175 82 -191 99 -5 6 36 -13 93 -42 57 -29 101 -55 98
-57z m-395 2 c115 -52 193 -97 104 -60 -81 33 -245 108 -245 111 0 10 27 0
141 -51z"/>
<path d="M1094 1398 l-19 -23 23 19 c21 18 27 26 19 26 -2 0 -12 -10 -23 -22z"/>
<path d="M1490 1366 c0 -2 7 -7 16 -10 8 -3 12 -2 9 4 -6 10 -25 14 -25 6z"/>
<path d="M1718 1053 c7 -3 16 -2 19 1 4 3 -2 6 -13 5 -11 0 -14 -3 -6 -6z"/>
<path d="M1558 1033 c7 -3 16 -2 19 1 4 3 -2 6 -13 5 -11 0 -14 -3 -6 -6z"/>
<path d="M569 723 l-24 -28 28 24 c15 14 27 26 27 28 0 8 -8 1 -31 -24z"/>
<path d="M5779 533 c23 -29 45 -53 48 -53 7 0 -54 75 -74 91 -10 8 2 -10 26
-38z"/>
<path d="M4957 473 c-4 -3 -7 -11 -7 -17 0 -6 5 -5 12 2 6 6 9 14 7 17 -3 3
-9 2 -12 -2z"/>
<path d="M989 433 l-24 -28 28 24 c25 23 32 31 24 31 -2 0 -14 -12 -28 -27z"/>
<path d="M1928 343 c6 -2 18 -2 25 0 6 3 1 5 -13 5 -14 0 -19 -2 -12 -5z"/>
<path d="M1848 333 c6 -2 18 -2 25 0 6 3 1 5 -13 5 -14 0 -19 -2 -12 -5z"/>
<path d="M1758 323 c7 -3 16 -2 19 1 4 3 -2 6 -13 5 -11 0 -14 -3 -6 -6z"/>
<path d="M1243 313 c9 -2 25 -2 35 0 9 3 1 5 -18 5 -19 0 -27 -2 -17 -5z"/>
<path d="M5002 120 c0 -19 2 -27 5 -17 2 9 2 25 0 35 -3 9 -5 1 -5 -18z"/>
</g>
</svg>
