<?xml version="1.0" standalone="no"?>
<!DOCTYPE svg PUBLIC "-//W3C//DTD SVG 20010904//EN"
 "https://www.w3.org/TR/2001/REC-SVG-20010904/DTD/svg10.dtd">
<svg version="1.0" xmlns="https://www.w3.org/2000/svg"
 width="525.000000pt" height="600.000000pt" viewBox="0 0 525.000000 600.000000"
 preserveAspectRatio="xMidYMid meet">
<metadata>
Created by potrace 1.16, written by Peter Selinger 2001-2019
</metadata>
<g transform="translate(0.000000,600.000000) scale(0.100000,-0.100000)"
fill="#ED1C24" stroke="none">
<path d="M1930 5878 c-61 -32 -78 -59 -100 -169 -23 -116 -35 -143 -67 -158
-45 -21 -65 -13 -129 54 -86 89 -132 97 -197 32 -30 -30 -107 -163 -107 -183
0 -5 19 20 41 56 62 98 106 140 147 140 28 0 43 -11 101 -70 58 -60 72 -70
102 -70 38 0 92 29 108 58 5 10 19 63 29 116 27 133 58 171 151 183 110 14
302 -140 395 -317 30 -58 102 -268 94 -275 -2 -1 -23 -13 -48 -25 -25 -13 -56
-31 -69 -41 -13 -11 -38 -19 -55 -19 -72 -1 -105 -26 -347 -262 -77 -75 -150
-188 -179 -276 -12 -40 -29 -77 -37 -83 -21 -18 -60 -90 -66 -124 -4 -19 -31
-56 -74 -100 -78 -79 -113 -136 -151 -245 -22 -63 -26 -92 -26 -185 0 -98 4
-120 32 -203 26 -76 32 -109 32 -177 0 -106 25 -178 83 -237 61 -63 165 -107
255 -108 l34 0 -24 -30 c-55 -71 -473 -315 -788 -461 -217 -100 -204 -96 -197
-60 4 16 29 80 57 142 27 62 50 122 50 134 0 46 -63 95 -124 95 -43 0 -105
-31 -128 -63 -12 -17 -29 -58 -39 -91 l-17 -61 -6 60 c-12 98 -16 114 -39 130
-29 20 -66 19 -105 -5 -42 -26 -69 -71 -77 -131 -6 -46 -8 -48 -33 -43 -70 13
-137 -87 -113 -167 14 -46 69 -111 123 -145 25 -16 48 -45 73 -93 44 -84 107
-145 165 -161 22 -6 85 -10 138 -9 86 1 105 -1 167 -27 90 -37 149 -37 204 -1
70 47 96 136 52 180 -18 19 -36 23 -113 27 l-92 5 80 49 c247 154 398 236 520
282 l61 23 -33 -88 c-84 -222 -122 -423 -131 -676 -9 -260 20 -499 83 -701
l26 -82 -64 -102 c-93 -149 -206 -297 -277 -362 -34 -32 -65 -58 -69 -58 -4 0
-19 33 -34 73 -51 135 -152 270 -275 368 -88 70 -243 149 -306 156 -39 5 -49
2 -71 -20 -46 -47 -32 -141 48 -312 193 -412 532 -730 651 -610 14 13 25 31
25 39 0 18 137 216 150 216 4 0 11 -8 15 -17 6 -13 10 -5 16 30 5 30 19 62 40
88 l32 41 13 -30 c19 -46 34 -49 34 -7 0 53 20 121 40 140 17 16 19 14 35 -19
22 -45 47 -49 39 -6 -9 43 13 121 43 152 l26 27 27 -37 c15 -20 55 -63 89 -94
142 -132 319 -128 472 10 l52 47 140 -3 140 -2 66 -63 c167 -161 326 -184 484
-71 27 20 51 33 53 31 8 -7 7 -113 -1 -147 -9 -41 11 -37 40 8 11 17 24 31 28
32 20 1 39 -76 34 -137 -7 -70 4 -81 31 -33 9 16 19 30 22 30 16 0 50 -90 50
-132 0 -51 5 -58 25 -31 11 15 20 3 69 -95 31 -61 56 -120 56 -129 0 -36 38
-81 76 -92 74 -20 178 23 329 138 174 131 396 408 473 588 39 91 24 164 -36
177 -43 10 -217 -39 -317 -89 -162 -81 -320 -222 -402 -359 l-40 -67 -39 44
c-22 25 -61 82 -89 128 -68 115 -175 329 -175 351 0 10 13 44 29 76 105 209
163 508 164 842 0 267 -41 528 -113 709 -11 29 -19 55 -17 58 7 7 127 -42 226
-92 117 -58 220 -122 380 -233 l123 -87 -92 -5 c-81 -5 -94 -8 -111 -29 -23
-28 -24 -50 -3 -99 21 -52 62 -91 108 -103 35 -9 52 -7 139 22 92 29 104 31
149 20 64 -14 140 -14 192 1 51 15 122 86 161 159 21 41 40 62 77 84 129 77
165 192 87 276 -25 27 -34 31 -67 27 l-38 -6 0 53 c-2 89 -57 155 -128 155
-51 0 -71 -27 -86 -118 l-13 -77 -12 51 c-25 108 -72 155 -163 162 -54 4 -62
2 -92 -25 -41 -37 -42 -73 -2 -173 16 -41 37 -99 46 -128 l15 -53 -22 7 c-47
14 -348 169 -467 240 -217 129 -510 351 -510 386 0 3 22 8 48 11 184 22 342
190 369 395 4 30 22 74 49 119 151 250 134 524 -45 738 -50 59 -50 61 -51 130
-1 82 -18 127 -79 200 -22 27 -41 56 -41 63 0 27 -68 158 -113 219 -43 57
-137 143 -158 143 -5 0 -32 24 -61 53 -79 78 -162 101 -278 76 -56 -12 -110 1
-110 27 0 31 81 198 134 278 123 185 329 318 445 286 67 -18 111 -87 111 -175
0 -38 -3 -44 -27 -50 -45 -10 -99 -51 -113 -84 -26 -64 10 -131 64 -117 29 7
72 72 88 131 15 56 33 58 88 9 26 -23 44 -51 51 -78 30 -109 43 -121 122 -111
80 11 91 25 15 18 -81 -7 -93 0 -107 68 -19 86 -59 140 -118 160 -32 10 -33
12 -33 68 0 140 -101 222 -239 193 -83 -18 -155 -67 -276 -187 -102 -101 -237
-280 -275 -365 -11 -25 -13 -25 -131 -25 -81 0 -119 3 -119 11 0 22 -101 216
-151 291 -29 43 -87 113 -129 155 -129 129 -247 168 -350 116z m1355 -763 c88
-42 172 -130 223 -235 54 -110 86 -235 79 -308 -12 -116 -90 -216 -215 -275
-64 -30 -73 -32 -187 -32 -112 0 -124 2 -176 29 -149 75 -229 221 -229 416 1
220 89 376 242 426 70 23 191 13 263 -21z m-863 -72 c51 -20 113 -92 134 -156
26 -75 24 -212 -4 -302 -65 -213 -244 -345 -451 -333 -332 20 -376 396 -79
673 137 128 274 169 400 118z m1034 -1042 c55 -25 99 -62 121 -105 17 -33 11
-136 -12 -222 -18 -63 -82 -138 -131 -154 -33 -11 -34 -13 -19 -30 20 -22 44
-86 45 -118 0 -33 -52 -52 -143 -52 -96 0 -155 18 -312 96 -149 74 -255 104
-364 104 -100 0 -245 -23 -351 -55 -273 -82 -402 -104 -482 -82 -36 9 -36 40
-4 119 23 56 23 58 5 74 -36 33 -59 97 -59 167 0 83 9 107 64 161 55 55 112
85 177 93 42 5 58 1 111 -26 35 -17 102 -63 150 -103 165 -139 269 -181 393
-160 106 17 160 46 354 186 101 74 174 111 243 126 65 14 158 5 214 -19z
m-1278 -771 c105 -64 276 -111 433 -118 134 -5 216 6 342 49 l88 30 46 -18
c42 -16 49 -24 78 -88 38 -81 55 -152 44 -181 -9 -27 -128 -79 -233 -104 -142
-33 -250 -43 -435 -37 -199 5 -316 29 -432 87 -157 79 -187 144 -119 255 20
33 135 145 148 145 4 0 22 -9 40 -20z m-221 -350 c126 -111 389 -168 735 -157
202 6 328 27 454 76 l72 28 25 -56 c51 -115 60 -194 28 -248 -73 -119 -486
-211 -828 -183 -279 22 -500 94 -607 196 -43 40 -46 47 -46 94 0 27 9 73 19
101 19 48 98 179 108 179 3 0 21 -14 40 -30z m-121 -419 c96 -63 260 -118 454
-153 96 -17 444 -17 565 0 191 27 348 79 427 142 l36 30 8 -43 c22 -130 -2
-389 -44 -461 -36 -63 -187 -128 -377 -163 -132 -25 -532 -24 -670 1 -227 41
-404 126 -450 216 -23 44 -18 45 24 7 49 -44 114 -82 203 -118 79 -32 78 -32
78 -20 0 5 -27 19 -60 31 -116 43 -232 127 -266 192 -17 33 -19 222 -3 315 6
35 12 63 14 63 1 0 29 -17 61 -39z m-36 -536 c43 -51 219 -119 395 -151 143
-27 622 -27 770 0 101 18 238 63 282 91 27 18 28 11 12 -50 -22 -87 -62 -184
-72 -178 -6 3 -7 1 -3 -5 16 -27 -93 -179 -120 -168 -8 3 -13 0 -11 -7 3 -15
-120 -58 -155 -54 -15 2 -25 0 -23 -4 15 -23 -274 -43 -441 -29 -234 18 -396
67 -489 145 l-30 25 48 -26 c26 -15 77 -36 112 -49 36 -12 61 -26 57 -30 -4
-5 -1 -5 5 -1 7 4 45 0 85 -8 231 -48 544 -39 733 20 98 30 156 57 166 75 9
18 8 18 -23 0 -52 -30 -183 -68 -303 -86 -145 -23 -415 -16 -553 14 -119 26
-269 76 -304 101 -15 11 -32 20 -39 20 -6 0 -8 7 -5 16 3 8 2 12 -4 9 -9 -6
-14 8 -11 28 0 4 -3 7 -8 7 -18 0 -76 168 -95 278 -6 34 4 41 24 17z m335
-560 c131 -33 247 -45 450 -45 166 0 369 19 398 37 6 4 -4 -12 -23 -35 -34
-40 -35 -40 -38 -17 -4 31 -22 33 -23 3 0 -13 -3 -17 -6 -10 -8 20 -20 14 -25
-13 -6 -31 1 -38 21 -23 9 8 8 3 -3 -10 -11 -12 -26 -20 -33 -18 -7 3 -12 0
-10 -6 3 -19 -140 -86 -221 -104 -111 -25 -327 -6 -306 27 3 5 -1 6 -9 3 -41
-16 -265 163 -239 191 4 5 2 5 -5 1 -7 -3 -21 7 -34 26 -21 29 -21 31 -3 24
10 -4 60 -18 109 -31z"/>
<path d="M2899 4671 c-38 -38 -39 -87 -3 -130 50 -59 133 -49 167 21 16 32 17
43 7 73 -15 46 -44 65 -98 65 -35 0 -49 -6 -73 -29z"/>
<path d="M2328 4901 c-27 -24 -33 -36 -33 -71 0 -102 143 -140 190 -50 54 105
-69 200 -157 121z"/>
<path d="M2024 3732 c2 -23 13 -60 25 -82 l20 -39 -56 -11 c-54 -12 -57 -11
-74 11 -10 13 -20 35 -22 49 -4 22 -4 21 -6 -5 0 -17 6 -40 14 -52 14 -20 13
-22 -15 -28 -41 -9 -50 -26 -9 -18 31 6 31 6 24 -27 -5 -23 -4 -30 4 -26 6 4
11 15 11 25 0 28 22 41 79 48 l50 6 -9 -34 c-6 -19 -10 -47 -9 -64 0 -34 5
-25 30 55 13 41 18 45 54 53 74 14 553 20 680 8 193 -18 286 -33 301 -48 7 -8
16 -36 20 -63 4 -28 10 -50 15 -50 12 0 11 37 -1 79 -5 19 -9 36 -7 37 1 1 27
-3 57 -10 52 -12 55 -15 67 -52 l11 -39 1 37 1 36 36 -10 c49 -13 55 -3 7 12
-54 18 -54 18 -33 53 11 18 20 41 20 52 0 13 -7 5 -19 -21 -10 -23 -24 -45
-30 -48 -13 -8 -121 14 -121 24 0 4 7 13 15 20 13 11 45 98 45 122 0 22 -18
-5 -24 -35 -4 -19 -21 -50 -39 -70 -31 -36 -34 -37 -73 -27 -71 16 -283 40
-423 46 -121 6 -345 -5 -495 -22 -52 -6 -53 -6 -75 29 -12 20 -28 55 -36 79
l-15 43 4 -43z"/>
<path d="M1990 3016 c0 -52 155 -142 292 -170 205 -42 529 -40 718 5 86 20
190 63 190 79 0 5 -24 -1 -52 -14 -58 -25 -155 -50 -258 -66 -98 -15 -410 -12
-520 5 -155 23 -282 76 -338 140 -18 20 -32 29 -32 21z"/>
<path d="M1860 2578 c81 -73 251 -142 425 -173 112 -20 375 -32 375 -18 0 6
-57 12 -142 16 -155 6 -267 24 -392 64 -94 30 -206 83 -257 124 -55 43 -61 34
-9 -13z"/>
<path d="M3222 1994 c-72 -48 -180 -86 -314 -111 -74 -14 -147 -18 -353 -18
-237 0 -330 7 -425 31 -19 5 -22 4 -14 -5 30 -33 369 -67 554 -57 231 14 343
38 475 101 85 40 156 88 145 97 -3 2 -33 -15 -68 -38z"/>
<path d="M3735 5269 c-75 -21 -237 -161 -220 -189 3 -4 31 3 63 16 32 13 91
29 132 35 41 7 87 18 102 26 56 28 60 81 8 108 -32 17 -41 17 -85 4z"/>
<path d="M1474 5039 c-85 -19 -125 -98 -69 -135 33 -21 65 -14 140 30 51 31
83 44 184 73 22 6 -1 23 -45 34 -49 11 -156 10 -210 -2z"/>
<path d="M1445 4676 c-94 -30 -225 -112 -255 -160 -26 -42 -27 -107 -2 -129
25 -23 74 -21 105 3 14 11 50 55 80 98 30 42 84 105 121 140 l67 62 -38 -1
c-21 0 -56 -6 -78 -13z m-6 -67 c-22 -24 -65 -77 -95 -116 -30 -40 -63 -77
-74 -83 -32 -17 -60 -12 -72 15 -22 48 18 100 126 165 40 24 148 71 153 66 2
-1 -15 -23 -38 -47z"/>
<path d="M4030 4387 c0 -4 22 -27 49 -52 27 -26 68 -75 91 -110 23 -35 52 -71
65 -79 50 -33 95 -10 95 50 0 48 -55 106 -144 149 -65 32 -156 56 -156 42z"/>
</g>
</svg>
