<?xml version="1.0" standalone="no"?>
<!DOCTYPE svg PUBLIC "-//W3C//DTD SVG 20010904//EN"
 "https://www.w3.org/TR/2001/REC-SVG-20010904/DTD/svg10.dtd">
<svg version="1.0" xmlns="https://www.w3.org/2000/svg"
 width="600.000000pt" height="487.000000pt" viewBox="0 0 600.000000 487.000000"
 preserveAspectRatio="xMidYMid meet">

<g transform="translate(0.000000,487.000000) scale(0.100000,-0.100000)"
fill="#FFF" stroke="none">
<path d="M1165 4495 c-170 -31 -315 -96 -385 -171 -73 -79 -49 -114 95 -136
l76 -12 -45 -39 c-38 -31 -46 -45 -46 -72 0 -41 35 -72 92 -81 21 -4 38 -8 38
-9 0 -2 -18 -21 -40 -43 -73 -73 -47 -125 70 -139 46 -5 49 -7 44 -29 -5 -19
-1 -26 19 -33 25 -10 94 -4 101 8 3 4 -13 5 -35 3 -21 -2 -46 -1 -55 2 -30 12
11 43 66 50 61 8 110 25 110 38 0 11 -97 6 -150 -9 -47 -13 -167 0 -187 20
-15 14 -14 18 1 42 9 14 35 39 58 55 39 29 46 30 142 30 151 0 256 32 256 76
0 52 -168 41 -306 -21 -46 -21 -69 -26 -104 -22 -131 15 -140 69 -23 140 55
33 64 35 174 40 178 9 281 53 191 83 -46 15 -157 0 -234 -30 -54 -22 -81 -26
-162 -26 -94 0 -155 14 -170 39 -22 34 127 144 251 185 134 44 243 59 383 53
69 -2 138 -10 154 -16 16 -6 31 -9 34 -7 7 8 -44 26 -102 37 -67 13 -227 10
-311 -6z m169 -254 c3 -5 -2 -12 -12 -16 -22 -9 -219 -20 -211 -11 24 26 210
48 223 27z m5 -190 c37 -23 -29 -48 -158 -58 -100 -7 -103 5 -8 36 92 30 143
37 166 22z"/>
<path d="M4105 3831 c-62 -37 -80 -94 -49 -152 14 -28 14 -32 -2 -50 -9 -10
-23 -19 -31 -19 -8 0 -26 -6 -42 -14 -33 -17 -46 -11 -55 29 -18 73 -85 101
-155 65 -61 -30 -70 -58 -39 -112 14 -24 29 -58 33 -76 4 -18 22 -56 41 -84
19 -28 33 -52 32 -53 -2 -1 -37 -12 -78 -24 -109 -33 -183 -76 -269 -157 l-76
-71 -124 -27 c-68 -16 -142 -34 -164 -42 -35 -13 -54 -12 -186 10 -80 14 -184
30 -231 36 -47 6 -99 13 -116 16 l-31 4 -6 83 c-7 103 -19 143 -60 204 -73
109 -286 202 -471 207 -60 1 -76 5 -96 24 -23 22 -31 23 -100 18 -41 -3 -120
-7 -175 -10 -106 -4 -164 -19 -227 -61 -21 -14 -49 -25 -63 -25 -31 0 -81 -24
-115 -56 -14 -12 -61 -34 -105 -48 -149 -47 -254 -127 -306 -231 -49 -100 -72
-120 -167 -144 -105 -27 -180 -61 -212 -95 -23 -25 -24 -29 -9 -54 15 -27 60
-48 157 -72 l42 -11 0 -53 0 -54 -62 -7 c-85 -9 -221 -41 -274 -64 -72 -32
-133 -80 -154 -121 -41 -80 -19 -179 60 -264 85 -92 200 -147 553 -263 128
-41 266 -89 307 -105 99 -39 270 -119 270 -127 0 -3 -18 -16 -41 -29 -22 -13
-91 -59 -152 -104 -118 -85 -200 -131 -255 -143 -27 -6 -38 -2 -67 24 -46 40
-97 49 -155 27 -104 -41 -111 -41 -167 -12 -74 37 -131 36 -173 -4 -23 -21
-42 -30 -67 -30 -40 0 -88 -23 -102 -49 -7 -12 -7 -70 -2 -161 8 -144 8 -144
39 -171 32 -29 87 -49 136 -49 18 0 35 -9 49 -26 46 -59 162 -72 253 -30 28
13 55 29 59 35 3 6 34 25 68 43 34 17 79 44 99 60 40 31 78 100 78 140 0 36
88 91 200 124 231 69 312 96 365 124 95 50 105 46 227 -77 58 -60 175 -187
259 -283 178 -202 342 -369 449 -456 162 -132 353 -241 523 -297 173 -58 441
-88 612 -69 77 9 74 9 -72 10 -331 3 -605 83 -863 252 -196 129 -345 269 -630
595 -96 110 -210 236 -252 281 -80 83 -87 94 -65 94 19 1 52 32 80 76 25 40
96 105 113 104 5 -1 29 -26 54 -56 130 -161 484 -456 730 -609 431 -268 949
-435 1349 -435 244 0 357 55 376 184 l7 43 61 -33 c34 -18 94 -42 132 -54 71
-22 115 -56 115 -88 1 -15 2 -15 11 1 6 10 8 25 5 33 -7 17 14 18 69 3 46 -13
73 -34 88 -69 l11 -25 4 27 c2 16 5 28 8 28 2 0 33 -13 69 -29 51 -23 66 -35
71 -57 7 -27 8 -27 15 -6 8 21 9 21 91 -18 62 -28 91 -49 113 -79 48 -64 81
-84 144 -89 50 -3 61 0 97 26 55 40 79 96 104 244 12 67 40 193 63 278 36 135
41 169 41 260 1 124 -13 186 -64 296 -40 86 -89 134 -137 134 -32 0 -63 -53
-63 -110 -1 -94 -20 -172 -84 -333 -71 -179 -109 -293 -126 -372 -6 -27 -12
-55 -15 -62 -4 -13 -150 47 -235 97 -146 86 -407 274 -457 329 -36 40 -50 62
-41 65 7 3 87 7 178 10 243 8 366 41 435 117 30 33 35 46 35 87 0 131 -146
285 -409 432 l-108 60 -13 72 c-7 40 -21 100 -31 132 l-18 60 58 62 c64 68
132 167 201 292 25 45 48 82 53 82 4 0 7 -15 7 -34 0 -19 7 -67 15 -107 15
-69 14 -74 -4 -113 -11 -22 -19 -42 -17 -44 3 -2 16 4 29 13 25 16 26 16 41
-14 21 -39 20 -59 -4 -98 -23 -38 -14 -42 23 -13 l26 21 16 -31 c18 -35 9 -88
-21 -121 -26 -28 0 -23 36 8 36 30 38 28 66 -44 16 -42 16 -43 -10 -74 -37
-43 -64 -100 -72 -146 -14 -88 77 -129 316 -143 80 -4 161 -13 180 -19 19 -6
67 -11 105 -11 94 0 180 29 240 82 39 34 46 46 43 72 -2 25 -9 33 -38 43 -19
7 -63 12 -97 12 -72 1 -130 21 -269 92 -103 52 -179 79 -225 79 -15 0 -30 3
-33 8 -2 4 -12 82 -21 172 -9 91 -20 194 -25 230 -16 113 -30 270 -39 437 -10
175 -18 201 -72 229 -43 22 -71 17 -135 -24 -32 -21 -81 -51 -109 -66 -129
-75 -341 -256 -425 -364 l-54 -70 -64 59 c-120 113 -270 167 -482 175 -109 5
-180 13 -242 30 -14 4 -12 10 15 33 18 15 66 49 107 75 115 74 210 148 263
202 47 49 48 50 110 51 119 2 208 54 302 177 34 45 58 145 53 224 -4 55 -8 68
-32 88 -32 28 -65 30 -109 8 -25 -13 -32 -14 -36 -3 -9 27 -51 59 -78 59 -15
0 -42 -8 -58 -19z m-2343 -233 c69 -22 87 -76 41 -120 -39 -36 -81 -56 -158
-73 -157 -37 -290 -41 -302 -9 -25 64 109 189 231 214 47 10 140 4 188 -12z
m188 -372 c0 -38 -32 -70 -62 -63 -46 12 -42 35 10 62 26 13 48 24 50 25 1 0
2 -11 2 -24z m-843 -118 c48 -28 102 -96 114 -142 28 -101 8 -210 -49 -277
-37 -43 -119 -89 -161 -89 -42 0 -99 22 -137 53 -154 128 -83 431 112 476 47
10 78 5 121 -21z m603 -64 c0 -45 -15 -74 -40 -74 -25 0 -50 10 -50 21 0 12
70 89 81 89 5 0 9 -16 9 -36z m1080 -4 c113 -16 209 -30 214 -30 17 0 -7 -16
-44 -30 -19 -7 -61 -26 -93 -41 l-58 -29 -62 21 c-36 12 -90 21 -129 22 -67 1
-68 1 -68 28 0 44 12 89 24 89 6 0 103 -13 216 -30z m-2072 3 c-23 -44 -58
-126 -58 -133 0 -22 -145 -4 -178 22 -27 23 40 64 155 97 78 22 86 24 81 14z
m1332 -3 c12 -8 9 -16 -23 -47 -31 -32 -39 -35 -47 -23 -13 21 -12 54 2 68 14
14 47 15 68 2z m680 -149 c25 -9 45 -22 45 -28 0 -6 -38 -40 -85 -76 -254
-192 -401 -448 -404 -704 -1 -62 -5 -93 -12 -93 -7 0 -14 9 -17 20 -3 12 -14
20 -25 20 -11 0 -29 2 -39 5 -10 3 -3 -2 16 -10 18 -9 31 -18 28 -21 -3 -3
-19 2 -36 11 -30 15 -31 17 -17 43 22 45 29 116 13 154 -22 52 -39 61 -114 59
l-66 -2 7 49 c29 218 194 456 381 548 113 56 220 64 325 25z m745 13 c79 -15
87 -18 65 -27 -73 -30 -194 -95 -260 -140 -279 -191 -548 -612 -567 -890 -3
-43 -10 -80 -14 -83 -5 -3 -9 -10 -9 -16 0 -7 5 -7 14 1 11 9 15 6 18 -19 5
-31 1 -35 -18 -22 -21 14 -34 76 -34 163 0 107 30 213 97 339 35 68 40 80 20
62 -49 -46 -107 -189 -133 -330 -15 -79 -14 -130 3 -201 5 -21 4 -22 -15 -12
-29 16 -46 105 -39 211 4 55 3 79 -3 69 -17 -30 -30 -153 -21 -206 6 -41 5
-50 -6 -46 -7 3 -10 9 -7 14 3 5 -1 6 -8 4 -18 -7 -124 68 -120 84 1 7 -2 10
-7 7 -12 -8 -46 27 -69 69 -13 24 -17 56 -16 150 0 104 4 131 28 200 69 204
256 440 411 521 193 102 461 140 690 98z m526 -73 c105 -27 186 -70 258 -136
53 -50 141 -164 141 -185 0 -4 -37 -10 -82 -14 -174 -14 -333 -95 -495 -250
-132 -126 -231 -261 -312 -429 -37 -75 -70 -135 -73 -131 -3 3 -9 0 -14 -7 -4
-8 -3 -10 4 -5 8 5 12 -3 12 -23 0 -32 0 -32 -67 -35 -10 -1 -21 -5 -25 -11
-13 -18 4 68 29 144 33 102 66 170 119 241 30 41 38 58 25 50 -27 -14 -96
-116 -127 -187 -14 -31 -37 -97 -51 -147 -15 -50 -33 -97 -42 -104 -14 -10
-14 -11 4 -6 16 5 17 4 5 -5 -8 -6 -18 -11 -22 -11 -12 0 -9 48 7 124 8 38 13
72 10 74 -8 9 -27 -52 -44 -143 -9 -51 -21 -90 -28 -90 -6 0 -15 -4 -20 -9 -5
-5 -3 -6 5 -2 6 4 12 2 12 -3 0 -6 -4 -11 -10 -11 -5 0 -14 -15 -19 -32 -9
-28 -10 -22 -6 32 3 46 1 56 -4 35 -8 -27 -9 -24 -9 20 -1 42 36 207 62 280 8
20 8 20 -9 0 -36 -45 -91 -281 -81 -353 l6 -44 -33 6 c-80 16 -265 125 -251
148 4 6 3 8 -4 5 -13 -9 -53 39 -82 98 -33 67 -25 195 20 320 63 178 195 395
318 522 129 134 346 255 523 293 67 14 263 4 350 -19z m-2473 -46 c20 -43 15
-84 -10 -94 -23 -8 -61 -3 -56 8 2 4 12 30 22 59 11 29 23 52 26 52 4 0 12
-11 18 -25z m341 -64 c12 -8 10 -20 -15 -75 -16 -36 -32 -66 -36 -66 -11 0
-48 66 -48 86 0 43 63 78 99 55z m-1175 -119 c13 -27 31 -54 39 -60 8 -7 29
-47 48 -90 147 -342 282 -461 553 -492 73 -8 94 -14 115 -34 48 -46 105 -57
156 -30 26 13 23 8 -18 -34 -47 -47 -51 -50 -117 -56 -69 -6 -70 -6 -180 49
-139 70 -222 102 -535 204 -311 102 -432 158 -503 235 -27 31 -58 76 -67 101
-17 43 -17 47 -1 90 38 99 131 141 339 154 67 5 128 9 134 10 7 0 24 -21 37
-47z m3743 -184 c86 -94 160 -378 150 -573 -6 -112 -24 -198 -40 -188 -6 3 -7
1 -3 -6 9 -15 -3 -53 -15 -46 -5 3 -6 0 -4 -7 7 -18 -64 -101 -81 -94 -7 3
-16 0 -20 -6 -5 -7 -2 -8 6 -3 9 6 11 4 6 -4 -5 -7 -14 -10 -22 -7 -8 3 -13 0
-11 -7 1 -7 -5 -12 -13 -12 -8 0 -19 -5 -25 -12 -11 -12 -165 -63 -192 -63 -8
0 -63 23 -121 51 -213 101 -390 164 -499 175 l-59 6 23 70 c82 244 280 515
462 633 134 87 213 113 347 114 82 1 93 -1 111 -21z m-2763 -462 c-16 -19 -29
-34 -31 -32 -8 7 23 66 37 69 24 5 24 0 -6 -37z"/>
<path d="M1580 3576 c-49 -26 -92 -66 -70 -66 25 0 179 65 176 75 -5 19 -61
14 -106 -9z"/>
<path d="M1028 3010 c-27 -16 -50 -93 -52 -170 -1 -59 2 -74 17 -84 26 -16 37
7 37 79 0 34 7 87 15 118 20 76 19 78 -17 57z"/>
<path d="M2263 2070 c0 -25 2 -35 4 -22 2 12 2 32 0 45 -2 12 -4 2 -4 -23z"/>
<path d="M2399 1933 c-5 -27 -3 -31 15 -27 11 2 24 8 29 13 6 6 3 8 -11 4 -16
-4 -21 0 -24 19 -3 20 -4 19 -9 -9z"/>
<path d="M2680 1853 c0 -31 3 -53 8 -49 4 4 7 30 7 57 0 27 -3 49 -7 49 -5 0
-8 -25 -8 -57z"/>
<path d="M2490 1880 c-8 -5 -10 -10 -5 -10 6 0 17 5 25 10 8 5 11 10 5 10 -5
0 -17 -5 -25 -10z"/>
<path d="M2617 1835 c6 -53 9 -62 19 -53 3 4 -1 28 -9 55 l-15 48 5 -50z"/>
<path d="M2498 1813 c7 -3 16 -2 19 1 4 3 -2 6 -13 5 -11 0 -14 -3 -6 -6z"/>
<path d="M2830 1866 c0 -2 7 -7 16 -10 8 -3 12 -2 9 4 -6 10 -25 14 -25 6z"/>
<path d="M2828 1833 c7 -3 16 -2 19 1 4 3 -2 6 -13 5 -11 0 -14 -3 -6 -6z"/>
<path d="M2782 1784 c-1 -13 0 -24 2 -24 7 0 14 40 7 44 -4 3 -8 -6 -9 -20z"/>
<path d="M2800 1762 c0 -5 7 -9 15 -9 8 0 12 4 9 9 -3 4 -9 8 -15 8 -5 0 -9
-4 -9 -8z"/>
<path d="M2880 1696 c0 -2 8 -10 18 -17 15 -13 16 -12 3 4 -13 16 -21 21 -21
13z"/>
<path d="M2955 1640 c-3 -5 1 -10 10 -10 9 0 13 5 10 10 -3 6 -8 10 -10 10 -2
0 -7 -4 -10 -10z"/>
<path d="M3370 1640 c-8 -5 -10 -10 -5 -10 6 0 17 5 25 10 8 5 11 10 5 10 -5
0 -17 -5 -25 -10z"/>
<path d="M3010 1600 c-9 -6 -10 -10 -3 -10 6 0 15 5 18 10 8 12 4 12 -15 0z"/>
<path d="M3080 1588 c14 -5 33 -14 43 -19 10 -6 17 -6 17 0 0 5 -14 14 -31 20
-40 14 -63 13 -29 -1z"/>
<path d="M2960 1546 c0 -2 7 -7 16 -10 8 -3 12 -2 9 4 -6 10 -25 14 -25 6z"/>
<path d="M3122 1530 c0 -14 2 -19 5 -12 2 6 2 18 0 25 -3 6 -5 1 -5 -13z"/>
<path d="M3040 1506 c0 -2 9 -6 20 -9 11 -3 18 -1 14 4 -5 9 -34 13 -34 5z"/>
<path d="M4536 1682 l-19 -27 24 22 c12 12 21 24 18 27 -2 2 -13 -8 -23 -22z"/>
<path d="M3562 1655 c3 -21 16 -35 33 -35 6 0 6 3 -1 8 -6 4 -16 16 -23 27
l-11 20 2 -20z"/>
<path d="M4510 1641 c0 -5 5 -13 10 -16 6 -3 10 -2 10 4 0 5 -4 13 -10 16 -5
3 -10 2 -10 -4z"/>
<path d="M4490 1580 c0 -5 5 -10 11 -10 5 0 7 5 4 10 -3 6 -8 10 -11 10 -2 0
-4 -4 -4 -10z"/>
<path d="M4470 1540 c-9 -6 -10 -10 -3 -10 6 0 15 5 18 10 8 12 4 12 -15 0z"/>
<path d="M4370 1530 c8 -5 20 -10 25 -10 6 0 3 5 -5 10 -8 5 -19 10 -25 10 -5
0 -3 -5 5 -10z"/>
<path d="M4230 1491 c0 -4 -18 -11 -40 -14 -26 -3 -47 -14 -59 -29 -19 -23
-19 -23 6 -36 48 -26 142 12 128 51 -4 9 -12 17 -19 17 -6 0 -4 5 4 10 13 8
12 10 -2 10 -10 0 -18 -4 -18 -9z"/>
<path d="M4049 1481 c12 -8 51 -4 51 5 0 2 -15 4 -32 4 -23 0 -29 -3 -19 -9z"/>
<path d="M4275 1482 c6 -4 10 -14 10 -22 0 -9 9 -15 24 -15 34 0 37 19 6 33
-29 13 -56 16 -40 4z"/>
</g>
</svg>
