<?xml version="1.0" encoding="UTF-8"?>
<!DOCTYPE svg PUBLIC "-//W3C//DTD SVG 1.1//EN" "https://www.w3.org/Graphics/SVG/1.1/DTD/svg11.dtd">
<svg xmlns="https://www.w3.org/2000/svg" version="1.1" width="860px" height="826px" style="shape-rendering:geometricPrecision; text-rendering:geometricPrecision; image-rendering:optimizeQuality; fill-rule:evenodd; clip-rule:evenodd" xmlns:xlink="https://www.w3.org/1999/xlink">
<g><path style="opacity:1" fill="#FFFFFF00" d="M -0.5,-0.5 C 286.167,-0.5 572.833,-0.5 859.5,-0.5C 859.5,274.833 859.5,550.167 859.5,825.5C 572.833,825.5 286.167,825.5 -0.5,825.5C -0.5,550.167 -0.5,274.833 -0.5,-0.5 Z"/></g>
<g><path style="opacity:1" fill="#FFF" d="M 216.5,391.5 C 205.148,391.627 193.815,391.294 182.5,390.5C 177.17,389.502 171.837,388.502 166.5,387.5C 164.485,386.076 162.152,385.41 159.5,385.5C 98.995,367.829 58.495,329.162 38,269.5C 35.5318,261.629 33.6985,253.629 32.5,245.5C 32.1916,241.64 31.5249,237.974 30.5,234.5C 29.2371,222.153 29.2371,209.819 30.5,197.5C 31.4824,193.684 32.1491,189.684 32.5,185.5C 33.9813,171.559 38.148,158.559 45,146.5C 77.4722,177.972 109.639,209.805 141.5,242C 168.707,261.906 196.373,262.572 224.5,244C 250.69,220.159 255.857,192.326 240,160.5C 237.05,155.882 233.716,151.548 230,147.5C 198.528,117.028 167.361,86.1948 136.5,55C 158.579,44.7044 181.912,39.8711 206.5,40.5C 272.674,42.1616 323.841,70.4949 360,125.5C 384.052,167.194 390.385,211.527 379,258.5C 358.742,278.421 338.075,298.087 317,317.5C 298.97,339.649 294.636,364.316 304,391.5C 309.362,405.24 317.862,416.573 329.5,425.5C 322.19,431.642 315.023,437.975 308,444.5C 288.54,426.041 269.374,407.208 250.5,388C 239.232,389.484 227.899,390.65 216.5,391.5 Z"/></g>
<g><path style="opacity:1" fill="#ED1C24" d="M 691.5,171.5 C 692.473,171.987 693.473,172.487 694.5,173C 735.108,213.943 775.942,254.443 817,294.5C 833.263,315.162 833.596,336.162 818,357.5C 770.915,403.585 724.081,450.085 677.5,497C 676.5,497.667 675.5,497.667 674.5,497C 628.111,449.943 581.111,403.61 533.5,358C 503.5,357.333 473.5,357.333 443.5,358C 428.866,370.966 414.532,384.299 400.5,398C 378.173,412.737 358.006,410.237 340,390.5C 330.458,374.645 330.125,358.645 339,342.5C 360.75,322.42 382.25,301.92 403.5,281C 408.172,278.163 413.172,276.163 418.5,275C 475.167,274.667 531.833,274.333 588.5,274C 622.701,239.632 657.035,205.465 691.5,171.5 Z"/></g>
<g><path style="opacity:1" fill="#FFF" d="M 32.5,185.5 C 32.1491,189.684 31.4824,193.684 30.5,197.5C 30.0834,193.183 30.7501,189.183 32.5,185.5 Z"/></g>
<g><path style="opacity:1" fill="#FFF" d="M 30.5,234.5 C 31.5249,237.974 32.1916,241.64 32.5,245.5C 30.783,242.155 30.1164,238.489 30.5,234.5 Z"/></g>
<g><path style="opacity:1" fill="#FFF" d="M 159.5,385.5 C 162.152,385.41 164.485,386.076 166.5,387.5C 163.848,387.59 161.515,386.924 159.5,385.5 Z"/></g>
<g><path style="opacity:1" fill="#FFF" d="M 694.5,767.5 C 683.902,769.097 673.235,769.763 662.5,769.5C 660.565,768.85 658.565,768.517 656.5,768.5C 654.485,767.076 652.152,766.41 649.5,766.5C 636.985,763.409 625.652,757.909 615.5,750C 596.375,732.042 577.708,713.542 559.5,694.5C 583.953,671.148 590.453,643.481 579,611.5C 572.745,599.078 563.578,589.412 551.5,582.5C 551.684,548.554 536.184,525.22 505,512.5C 496.391,469.763 470.225,448.763 426.5,449.5C 422.345,442.2 417.012,435.867 410.5,430.5C 426.872,418.302 442.205,404.802 456.5,390C 475.167,389.333 493.833,389.333 512.5,390C 589.081,465.915 665.581,541.748 742,617.5C 772.95,657.515 773.283,697.848 743,738.5C 729.718,752.939 713.552,762.606 694.5,767.5 Z"/></g>
<g><path style="opacity:1" fill="#FFF" d="M 182.5,390.5 C 193.815,391.294 205.148,391.627 216.5,391.5C 212.18,392.166 207.68,392.499 203,392.5C 195.936,392.661 189.103,391.994 182.5,390.5 Z"/></g>
<g><path style="opacity:1" fill="#ED1C24" d="M 399.5,469.5 C 399.41,472.152 400.076,474.485 401.5,476.5C 401.665,480.182 401.499,483.848 401,487.5C 398.89,494.474 397.224,501.474 396,508.5C 403.942,499.552 412.775,491.719 422.5,485C 445.556,478.779 461.723,486.612 471,508.5C 472.011,516 471.345,523.333 469,530.5C 466.124,536.423 462.624,541.923 458.5,547C 462.709,546.74 466.709,545.573 470.5,543.5C 473.152,543.59 475.485,542.924 477.5,541.5C 495.006,540.669 507.839,548.003 516,563.5C 519.468,576.705 517.134,588.705 509,599.5C 506.982,601.35 505.149,603.35 503.5,605.5C 519.626,602.654 533.46,606.988 545,618.5C 551.218,627.199 553.218,636.866 551,647.5C 549.81,652.213 547.81,656.547 545,660.5C 531.578,677.259 517.412,693.426 502.5,709C 482.433,720.545 465.6,717.045 452,698.5C 447.851,690.283 446.518,681.616 448,672.5C 450.402,666.39 452.735,660.39 455,654.5C 443.715,661.602 431.548,664.102 418.5,662C 398.037,652.306 390.871,636.472 397,614.5C 398.791,610.464 400.958,606.631 403.5,603C 402.5,602.333 401.5,602.333 400.5,603C 387.004,611.718 373.004,612.718 358.5,606C 350.331,600.488 344.998,592.988 342.5,583.5C 342.36,577.464 342.693,571.464 343.5,565.5C 345.295,560.577 347.628,555.91 350.5,551.5C 350,551.167 349.5,550.833 349,550.5C 340.953,555.191 332.286,557.857 323,558.5C 304.989,557.493 293.989,548.159 290,530.5C 288.123,521.104 289.79,512.437 295,504.5C 311.167,487 328,470.167 345.5,454C 362.367,444.265 378.201,445.765 393,458.5C 395.682,461.865 397.849,465.531 399.5,469.5 Z"/></g>
<g><path style="opacity:1" fill="#FFF" d="M 399.5,469.5 C 400.924,471.515 401.59,473.848 401.5,476.5C 400.076,474.485 399.41,472.152 399.5,469.5 Z"/></g>
<g><path style="opacity:1" fill="#FFF" d="M 477.5,541.5 C 475.485,542.924 473.152,543.59 470.5,543.5C 472.515,542.076 474.848,541.41 477.5,541.5 Z"/></g>
<g><path style="opacity:1" fill="#FFF" d="M 343.5,565.5 C 342.693,571.464 342.36,577.464 342.5,583.5C 341.836,581.19 341.503,578.69 341.5,576C 341.304,572.195 341.97,568.695 343.5,565.5 Z"/></g>
<g><path style="opacity:1" fill="#FFF" d="M 649.5,766.5 C 652.152,766.41 654.485,767.076 656.5,768.5C 653.848,768.59 651.515,767.924 649.5,766.5 Z"/></g>
<g><path style="opacity:1" fill="#FFF" d="M 694.5,767.5 C 691.097,768.925 687.43,769.758 683.5,770C 676.321,770.821 669.321,770.655 662.5,769.5C 673.235,769.763 683.902,769.097 694.5,767.5 Z"/></g>
</svg>
